<?xml version="1.0" encoding="utf-8"?>
<!-- Generator: Adobe Illustrator 22.1.0, SVG Export Plug-In . SVG Version: 6.00 Build 0)  -->
<svg version="1.1" id="Ebene_5" xmlns="http://www.w3.org/2000/svg" xmlns:xlink="http://www.w3.org/1999/xlink" x="0px" y="0px"
	 viewBox="0 0 400 400" style="enable-background:new 0 0 400 400;" xml:space="preserve">
<style type="text/css">
	.st0{fill:#D70751;}
</style>
<path class="st0" d="M214.4,148.1c-3.2,0,0.6,1.6,4.7,2.3c1.2-0.9,2.2-1.8,3.1-2.7C219.7,148.4,217,148.4,214.4,148.1"/>
<path class="st0" d="M231.4,143.9c1.9-2.6,3.3-5.5,3.8-8.4c-0.4,2.1-1.6,3.9-2.6,5.8c-5.9,3.7-0.6-2.2,0-4.5
	C226.2,144.9,231.7,141.6,231.4,143.9"/>
<path class="st0" d="M237.7,127.5c0.4-5.7-1.1-3.9-1.6-1.7C236.7,126.1,237.2,129.8,237.7,127.5"/>
<path class="st0" d="M202.3,49.3c1.7,0.3,3.7,0.5,3.4,0.9C207.6,49.8,208,49.5,202.3,49.3"/>
<path class="st0" d="M205.7,50.2l-1.2,0.2l1.1-0.1L205.7,50.2"/>
<path class="st0" d="M258.6,129.7c0.2,5.1-1.5,7.6-3,12l-2.7,1.4c-2.2,4.4,0.2,2.8-1.4,6.2c-3.5,3.1-10.6,9.8-12.9,10.4
	c-1.7,0,1.1-2,1.5-2.7c-4.7,3.2-3.8,4.8-11,6.8l-0.2-0.5c-17.7,8.3-42.3-8.2-42-30.7c-0.2,1.4-0.5,1.1-0.9,1.6
	c-0.9-11.6,5.4-23.2,15.9-28c10.3-5.1,22.5-3,29.9,3.9c-4.1-5.3-12.2-11-21.8-10.5c-9.4,0.2-18.2,6.1-21.1,12.6
	c-4.8,3-5.4,11.7-7.5,13.3c-2.8,20.8,5.3,29.7,19.1,40.3c2.2,1.5,0.6,1.7,0.9,2.8c-4.6-2.1-8.8-5.4-12.2-9.3
	c1.8,2.7,3.8,5.3,6.3,7.3c-4.3-1.5-10.1-10.4-11.8-10.8c7.4,13.3,30.1,23.3,42,18.4c-5.5,0.2-12.5,0.1-18.7-2.2
	c-2.6-1.3-6.1-4.1-5.5-4.6c16.2,6.1,33,4.6,47.1-6.7c3.6-2.8,7.5-7.5,8.6-7.6c-1.7,2.6,0.3,1.2-1,3.5c3.6-5.7-1.6-2.3,3.7-9.9
	l1.9,2.7c-0.7-4.8,5.9-10.6,5.2-18.1c1.5-2.3,1.7,2.5,0.1,7.8c2.2-5.9,0.6-6.8,1.2-11.7c0.6,1.6,1.4,3.4,1.9,5.1
	c-1.5-5.7,1.5-9.6,2.2-12.9c-0.7-0.3-2.3,2.5-2.6-4.2c0.1-2.9,0.8-1.5,1.1-2.2c-0.6-0.3-2.1-2.6-3-6.9c0.7-1,1.8,2.6,2.7,2.8
	c-0.6-3.4-1.6-6-1.6-8.6c-2.6-5.5-0.9,0.7-3.1-2.4c-2.8-8.7,2.3-2,2.7-6c4.2,6.2,6.7,15.7,7.8,19.7c-0.9-4.8-2.2-9.5-3.9-14
	c1.3,0.5-2.1-9.9,1.7-3c-4-14.8-17.2-28.6-29.3-35c1.5,1.4,3.3,3.1,2.7,3.3c-6-3.6-5-3.9-5.8-5.4c-4.9-2-5.2,0.2-8.5,0
	c-9.2-4.9-11-4.4-19.5-7.5l0.4,1.8c-6.1-2-7.1,0.8-13.8,0c-0.4-0.3,2.1-1.1,4.2-1.4c-5.9,0.8-5.6-1.2-11.4,0.2
	c1.4-1,2.9-1.7,4.5-2.5c-4.8,0.3-11.5,2.8-9.5,0.5c-7.9,3.5-21.9,8.5-29.7,15.8l-0.2-1.6c-3.6,4.3-15.7,12.9-16.7,18.5l-1,0.2
	c-1.9,3.2-3.1,6.8-4.6,10c-2.4,4.2-3.6,1.6-3.2,2.3c-4.8,9.8-7.2,18-9.3,24.7c1.5,2.2,0,13.3,0.6,22.1
	c-2.4,43.7,30.7,86.1,66.8,95.9c5.3,1.9,13.2,1.8,19.9,2c-7.9-2.3-8.9-1.2-16.6-3.9c-5.6-2.6-6.8-5.6-10.7-9l1.6,2.8
	c-7.7-2.7-4.5-3.4-10.8-5.4l1.7-2.2c-2.5-0.2-6.6-4.2-7.8-6.4l-2.7,0.1c-3.3-4.1-5-7-4.9-9.2l-0.9,1.6c-1-1.7-12.1-15.2-6.3-12.1
	c-1.1-1-2.5-1.6-4-4.4l1.2-1.3c-2.8-3.6-5.1-8.1-4.9-9.7c1.5,2,2.5,2.4,3.5,2.7c-7-17.4-7.4-1-12.7-17.7l1.1-0.1
	c-0.9-1.3-1.4-2.7-2.1-4.1l0.5-4.9c-5-5.8-1.4-24.8-0.7-35.1c0.5-4.2,4.2-8.7,7-15.8l-1.7-0.3c3.3-5.7,18.7-23,25.9-22.1
	c3.5-4.4-0.7,0-1.4-1.1c7.6-7.9,10-5.6,15.1-7c5.5-3.3-4.8,1.3-2.1-1.3c9.6-2.4,6.8-5.6,19.3-6.8c1.3,0.7-3.1,1.2-4.2,2.1
	c8-3.9,25.2-3,36.5,2.2c13,6.1,27.6,24.1,28.2,41l0.7,0.2c-0.3,6.7,1,14.5-1.3,21.6L258.6,129.7"/>
<path class="st0" d="M179.7,152.5l-0.4,2.2c2.1,2.8,3.7,5.9,6.4,8.1C183.8,159.1,182.3,157.6,179.7,152.5"/>
<path class="st0" d="M184.6,152.3c-1.1-1.2-1.8-2.7-2.5-4.2c0.7,2.6,2.1,4.8,3.5,7L184.6,152.3"/>
<path class="st0" d="M272,133.3l-0.5,1.2c-0.9,6.1-2.7,12.1-5.5,17.7C269.1,146.3,271.1,139.8,272,133.3"/>
<path class="st0" d="M203,47.8c2.1-0.8,5.3-0.4,7.6-0.9c-3,0.2-5.9,0.4-8.8,0.8L203,47.8"/>
<path class="st0" d="M127.6,87.9c0.5,4.6-3.4,6.4,0.9,3.3C130.7,86,127.5,89.8,127.6,87.9"/>
<path class="st0" d="M122.5,109.1c1-3.1,1.2-4.9,1.6-6.7C121.3,105.9,122.8,106.7,122.5,109.1"/>
<path d="M113.3,313.7c-0.1,0.1-0.1,16-0.3,20.1c-0.2,3.3-0.5,10.5-7.6,10.5c-7.3,0-9.1-8.4-9.7-12c-0.7-4-0.7-7.4-0.7-8.9
	c0-4.7,0.3-17.9,11.4-17.9c3.4,0,5.2,1,6.7,1.8L113.3,313.7L113.3,313.7z M84.8,325.3c0,27.8,14.8,27.8,16.9,27.8
	c6.1,0,10.1-3.4,11.7-9.2l0.2,8.8c1.9-0.1,3.7-0.3,6.8-0.3c1.1,0,2,0,2.8,0.1c0.8,0,1.6,0.1,2.5,0.2c-1.6-3.2-2.8-10.2-2.8-25.6
	c0-15,0-40.3,1.3-48c-3.5,1.7-6.6,2.8-13.3,3.4c2.7,2.9,2.7,4.3,2.7,17.3c-1.9-0.6-4.2-1.3-8.3-1.3
	C87.6,298.5,84.8,313.9,84.8,325.3"/>
<path d="M138.2,320.3c0.1-8.2,1.8-15.5,8.8-15.5c7.7,0,8.3,8.5,8.1,15.5C155,320.3,138.2,320.3,138.2,320.3z M164.8,321.3
	c0-11.5-2.3-22.9-16.8-22.9c-20.1,0-20.1,22.3-20.1,27c0,20,9,27.9,24,27.9c6.7,0,10-1,11.7-1.5c-0.1-3.5,0.4-5.8,1-8.9
	c-2.1,1.3-4.7,3-10.6,3c-15.4,0-15.6-14-15.6-18.8h26.2L164.8,321.3"/>
<path d="M196.8,325.5c0,9.2-1.7,21.5-13.1,21.5c-1.6,0-3.5-0.3-4.8-0.6c-0.2-3.5-0.2-9.7-0.2-16.7c0-8.5,0.9-12.9,1.6-15.1
	c2.1-7,6.7-7.1,7.6-7.1C195.4,307.5,196.8,317.8,196.8,325.5L196.8,325.5z M168.6,336.3c0,7.3,0,11.4-1.2,14.6
	c4,1.6,9.1,2.5,15.1,2.5c3.8,0,15,0,21-12.3c2.9-5.7,3.8-13.4,3.8-19.2c0-3.5-0.4-11.3-3.3-16.3c-2.8-4.6-7.2-7-11.9-7
	c-9.5,0-12.2,7.9-13.7,11.9c0-5,0.1-22.6,0.9-31.5c-6.4,3-10.3,3.4-14.6,3.8c3.8,1.6,3.8,8.1,3.8,29.3L168.6,336.3"/>
<path d="M226.2,352.7c-2-0.3-3.4-0.5-6.2-0.5c-3.1,0-5.3,0.2-7.6,0.5c1-1.9,1.4-2.8,1.7-9.2c0.4-8.8,0.5-32.2-0.2-37.1
	c-0.5-3.7-1.4-4.3-2.8-5.3c8.1-0.8,10.3-1.4,14.1-3.2c-0.8,4.3-0.9,6.5-0.9,13.1C224.2,345,224.1,348.7,226.2,352.7"/>
<path d="M257.8,324.8c-0.2,6.2-0.3,10.5-2,14c-2.1,4.4-5.5,5.7-8.1,5.7c-5.9,0-7.2-4.9-7.2-9.8c0-9.3,8.3-10,12-10
	C252.6,324.8,257.8,324.8,257.8,324.8z M230.7,336.9c0,6.2,1.9,12.4,7.4,15.1c2.5,1.1,4.9,1.1,5.7,1.1c9.1,0,12.1-6.7,14-10.8
	c-0.1,4.3,0,7,0.3,10.4c1.8-0.1,3.5-0.3,6.5-0.3c1.7,0,3.3,0.2,4.9,0.3c-1.1-1.7-1.7-2.7-2-6.5c-0.2-3.7-0.2-7.5-0.2-12.7l0.1-20.1
	c0-7.5-2-14.9-16.8-14.9c-9.8,0-15.5,3-18.3,4.4c1.2,2.2,2.2,4,3.1,8.3c3.8-3.4,8.9-5.1,14-5.1c8.2,0,8.2,5.4,8.2,13.1
	c-1.9-0.1-3.5-0.3-6.1-0.3C239,318.9,230.7,323.8,230.7,336.9"/>
<path d="M314.5,343c0.1,3.4,0.1,6.9,1.5,9.8c-2.2-0.2-3.5-0.5-7.5-0.5c-2.4,0-3.6,0.2-5.5,0.5c0.4-1.3,0.6-1.8,0.8-3.5
	c0.3-2.3,0.5-9.9,0.5-12.5v-10.6c0-4.6,0-11.3-0.3-13.7c-0.2-1.7-0.7-6.2-6.4-6.2c-5.6,0-7.5,4.1-8.2,7.5c-0.8,3.4-0.8,7.2-0.8,21.8
	c0.1,12.6,0.1,13.8,1.1,17.2c-1.7-0.2-3.7-0.4-6.7-0.4c-2.4,0-3.9,0.1-5.9,0.4c0.7-1.6,1.1-2.4,1.3-7.9c0.2-5.4,0.6-32-0.3-38.3
	c-0.5-3.8-1.5-4.7-2.6-5.7c8-0.4,10.5-1.7,13-3v10.4c1.2-3.1,3.6-9.9,13.5-9.9c12.3,0,12.4,9,12.5,14.9L314.5,343"/>
<path class="st0" d="M227.1,284l-8.2,8.2l-8.2-8.2l8.2-8.2L227.1,284"/>
</svg>
