<?xml version="1.0" encoding="utf-8"?>
<!-- Generator: Adobe Illustrator 22.1.0, SVG Export Plug-In . SVG Version: 6.00 Build 0)  -->
<svg version="1.1" id="Ebene_4" xmlns="http://www.w3.org/2000/svg" xmlns:xlink="http://www.w3.org/1999/xlink" x="0px" y="0px"
	 viewBox="0 0 400 400" style="enable-background:new 0 0 400 400;" xml:space="preserve">
<style type="text/css">
	.st0{fill:#F32735;}
</style>
<g>
	<path class="st0" d="M308.2,190l-98.8-98.8c-5.7-5.7-14.9-5.7-20.6,0l-20.5,20.5l26,26c6-2,13-0.7,17.8,4.1
		c4.8,4.8,6.2,11.8,4.1,17.9l25.1,25.1c6.1-2.1,13.1-0.7,17.9,4.1c6.8,6.8,6.8,17.7,0,24.5c-6.8,6.8-17.7,6.8-24.5,0
		c-5.1-5.1-6.4-12.6-3.8-18.9l-23.4-23.4v61.5c1.6,0.8,3.2,1.9,4.6,3.3c6.8,6.8,6.8,17.7,0,24.5c-6.8,6.8-17.7,6.8-24.5,0
		c-6.8-6.8-6.8-17.7,0-24.5c1.7-1.7,3.6-2.9,5.7-3.8v-62.1c-2.1-0.8-4-2.1-5.7-3.8c-5.1-5.1-6.4-12.7-3.7-18.9l-25.6-25.6
		l-67.7,67.7c-5.7,5.7-5.7,14.9,0,20.6l98.8,98.8c5.7,5.7,14.9,5.7,20.6,0l98.3-98.3C313.9,204.9,313.9,195.7,308.2,190z"/>
</g>
</svg>
