<?xml version="1.0" encoding="utf-8"?>
<!-- Generator: Adobe Illustrator 22.1.0, SVG Export Plug-In . SVG Version: 6.00 Build 0)  -->
<svg version="1.1" id="Ebene_2" xmlns="http://www.w3.org/2000/svg" xmlns:xlink="http://www.w3.org/1999/xlink" x="0px" y="0px"
	 viewBox="0 0 400 400" style="enable-background:new 0 0 400 400;" xml:space="preserve">
<style type="text/css">
	.st0{fill:#EF533F;}
	.st1{fill:#6D6D6D;}
</style>
<g>
	<path class="st0" d="M239.2,281.2c-1.8,0-3.4-0.9-4.4-2.5l-38.7-64.6l-72.3,19.7c-2.3,0.6-4.7-0.4-5.9-2.5L33.3,72.2
		c-0.8-1.5-0.8-3.2,0-4.7c0.8-1.5,2.2-2.5,3.9-2.7L109,55c2-0.3,4,0.7,5.1,2.4l86.8,144.7l100.8-27.4L268,127.3
		c-1-1.4-1.2-3.2-0.6-4.8c0.6-1.6,2-2.8,3.6-3.2l47.2-11.1c1.9-0.5,3.9,0.2,5.2,1.8l40.8,50.9c1.1,1.3,1.4,3.1,0.9,4.8
		c-0.5,1.6-1.9,2.9-3.5,3.4l-43,11.7l37.5,52.8c0.9,1.3,1.2,3,0.7,4.5c-0.5,1.5-1.7,2.7-3.2,3.3l-112.6,39.4
		C240.3,281.1,239.8,281.2,239.2,281.2z M206.3,211.3l35.1,58.5L343.7,234L308,183.7L206.3,211.3z M45.8,73.9L125,222.8l65.6-17.8
		L107.1,65.6L45.8,73.9z M280.7,127.6l31.4,44.3l39.1-10.6L317.4,119L280.7,127.6z"/>
</g>
<g>
	<path class="st1" d="M106,295.8h4.3v46.1H106V295.8z"/>
	<path class="st1" d="M152.3,308.7v33.3h-4.2v-5.7c-1.8,2.2-3.8,3.8-6,4.9c-2.2,1.1-4.7,1.7-7.3,1.7c-4.7,0-8.7-1.7-12.1-5.1
		c-3.3-3.4-5-7.6-5-12.5c0-4.8,1.7-8.9,5-12.3c3.4-3.4,7.4-5.1,12.1-5.1c2.7,0,5.2,0.6,7.4,1.7c2.2,1.2,4.2,2.9,5.8,5.2v-6.1H152.3z
		 M135.2,312c-2.4,0-4.6,0.6-6.6,1.8c-2,1.2-3.6,2.8-4.8,4.9c-1.2,2.1-1.8,4.4-1.8,6.7c0,2.3,0.6,4.6,1.8,6.7c1.2,2.1,2.8,3.8,4.8,5
		c2,1.2,4.2,1.8,6.5,1.8c2.3,0,4.6-0.6,6.7-1.8c2.1-1.2,3.7-2.8,4.8-4.8c1.1-2,1.7-4.3,1.7-6.8c0-3.8-1.3-7.1-3.8-9.6
		S139,312,135.2,312z"/>
	<path class="st1" d="M160.4,308.7h4.4v4.9c1.3-1.9,2.7-3.3,4.1-4.3c1.4-0.9,3-1.4,4.5-1.4c1.2,0,2.4,0.4,3.8,1.1l-2.2,3.6
		c-0.9-0.4-1.7-0.6-2.3-0.6c-1.4,0-2.8,0.6-4.1,1.8c-1.3,1.2-2.3,3-3,5.5c-0.5,1.9-0.8,5.7-0.8,11.5v11.2h-4.4V308.7z"/>
	<path class="st1" d="M213.9,308.7v33.3h-4.2v-5.7c-1.8,2.2-3.8,3.8-6,4.9c-2.2,1.1-4.7,1.7-7.3,1.7c-4.7,0-8.7-1.7-12.1-5.1
		c-3.3-3.4-5-7.6-5-12.5c0-4.8,1.7-8.9,5-12.3c3.4-3.4,7.4-5.1,12.1-5.1c2.7,0,5.2,0.6,7.4,1.7c2.2,1.2,4.2,2.9,5.8,5.2v-6.1H213.9z
		 M196.8,312c-2.4,0-4.6,0.6-6.6,1.8c-2,1.2-3.6,2.8-4.8,4.9c-1.2,2.1-1.8,4.4-1.8,6.7c0,2.3,0.6,4.6,1.8,6.7c1.2,2.1,2.8,3.8,4.8,5
		c2,1.2,4.2,1.8,6.5,1.8c2.3,0,4.6-0.6,6.7-1.8c2.1-1.2,3.7-2.8,4.8-4.8c1.1-2,1.7-4.3,1.7-6.8c0-3.8-1.3-7.1-3.8-9.6
		S200.5,312,196.8,312z"/>
	<path class="st1" d="M220.4,308.7h4.6l11.2,24.2l11-24.2h4.6l-15.2,33.3h-0.8L220.4,308.7z"/>
	<path class="st1" d="M286.3,330.9l3.6,1.9c-1.2,2.3-2.5,4.2-4.1,5.6c-1.5,1.4-3.3,2.5-5.2,3.3c-1.9,0.7-4.1,1.1-6.6,1.1
		c-5.4,0-9.7-1.8-12.7-5.3c-3.1-3.6-4.6-7.6-4.6-12.1c0-4.2,1.3-8,3.9-11.3c3.3-4.2,7.7-6.3,13.2-6.3c5.7,0,10.2,2.2,13.6,6.4
		c2.4,3,3.6,6.8,3.7,11.4H261c0.1,3.9,1.3,7,3.7,9.5s5.3,3.7,8.8,3.7c1.7,0,3.3-0.3,4.9-0.9c1.6-0.6,3-1.4,4.1-2.3
		C283.7,334.7,285,333.1,286.3,330.9z M286.3,322c-0.6-2.3-1.4-4.1-2.5-5.5c-1.1-1.4-2.5-2.5-4.3-3.3c-1.8-0.8-3.7-1.3-5.7-1.3
		c-3.3,0-6.1,1-8.4,3.1c-1.7,1.5-3,3.8-3.9,6.9H286.3z"/>
	<path class="st1" d="M298.3,295.8h4.3v46.1h-4.3V295.8z"/>
</g>
</svg>
