<?xml version="1.0" encoding="utf-8"?>
<!-- Generator: Adobe Illustrator 22.1.0, SVG Export Plug-In . SVG Version: 6.00 Build 0)  -->
<svg version="1.1" id="Ebene_7" xmlns="http://www.w3.org/2000/svg" xmlns:xlink="http://www.w3.org/1999/xlink" x="0px" y="0px"
	 viewBox="0 0 400 400" style="enable-background:new 0 0 400 400;" xml:space="preserve">
<style type="text/css">
	.st0{fill:#CB3837;}
	.st1{fill:#FFFFFF;}
</style>
<path class="st0" d="M58,144.8h284v94.7H200v15.8h-63.1v-15.8H58V144.8z M73.8,223.7h31.6v-47.3h15.8v47.3h15.8v-63.1H73.8V223.7z
	 M152.7,160.6v78.9h31.6v-15.8h31.6v-63.1H152.7z M184.2,176.3H200v31.6h-15.8V176.3z M231.6,160.6v63.1h31.6v-47.3h15.8v47.3h15.8
	v-47.3h15.8v47.3h15.8v-63.1H231.6z"/>
<polygon class="st1" points="73.8,223.7 105.3,223.7 105.3,176.3 121.1,176.3 121.1,223.7 136.9,223.7 136.9,160.6 73.8,160.6 "/>
<path class="st1" d="M152.7,160.6v78.9h31.6v-15.8h31.6v-63.1H152.7z M200,207.9h-15.8v-31.6H200V207.9z"/>
<polygon class="st1" points="231.6,160.6 231.6,223.7 263.1,223.7 263.1,176.3 278.9,176.3 278.9,223.7 294.7,223.7 294.7,176.3 
	310.4,176.3 310.4,223.7 326.2,223.7 326.2,160.6 "/>
</svg>
