<?xml version="1.0" encoding="utf-8"?>
<!-- Generator: Adobe Illustrator 22.1.0, SVG Export Plug-In . SVG Version: 6.00 Build 0)  -->
<svg version="1.1" id="Ebene_6" xmlns="http://www.w3.org/2000/svg" xmlns:xlink="http://www.w3.org/1999/xlink" x="0px" y="0px"
	 viewBox="0 0 400 400" style="enable-background:new 0 0 400 400;" xml:space="preserve">
<style type="text/css">
	.st0{fill:#CD6799;}
</style>
<path class="st0" d="M319.1,218.8c-11.5,0.1-21.6,2.8-29.9,6.9c-3.1-6.1-6.2-11.5-6.7-15.5c-0.6-4.6-1.3-7.5-0.6-13
	c0.7-5.6,4-13.5,3.9-14.1c-0.1-0.6-0.7-3.4-7.4-3.5c-6.6-0.1-12.4,1.3-13,3s-1.9,5.7-2.8,9.8c-1.1,6-13.3,27.6-20.2,38.9
	c-2.2-4.4-4.2-8.3-4.6-11.4c-0.6-4.6-1.3-7.5-0.6-13s4-13.5,3.9-14.1c-0.1-0.6-0.7-3.4-7.4-3.5c-6.6-0.1-12.4,1.3-13,3
	c-0.7,1.8-1.4,5.9-2.8,9.8s-17.5,40-21.7,49.3c-2.2,4.8-4,8.6-5.4,11.2l0,0c0,0-0.1,0.2-0.2,0.5c-1.1,2.2-1.8,3.4-1.8,3.4s0,0,0,0.1
	c-0.9,1.6-1.9,3.1-2.4,3.1c-0.4,0-1-4.3,0.1-10.3c2.4-12.5,8.2-31.9,8.1-32.6c0-0.4,1.1-3.7-3.7-5.5c-4.7-1.8-6.4,1.1-6.8,1.1
	s-0.7,1-0.7,1s5.3-21.9-10-21.9c-9.5,0-22.7,10.4-29.2,19.9c-4.1,2.2-12.9,7-22.2,12.1c-3.6,2-7.2,4-10.7,5.9
	c-0.2-0.2-0.5-0.5-0.7-0.8c-18.5-19.7-52.7-33.7-51.2-60.2c0.5-9.7,3.9-35,65.6-65.8c50.8-25.1,91.3-18.1,98.3-2.7
	c10,22-21.7,62.8-74.2,68.7c-20,2.2-30.6-5.5-33.2-8.4c-2.8-3-3.2-3.2-4.2-2.6c-1.7,0.9-0.6,3.6,0,5.2c1.6,4.1,8,11.4,19,14.9
	c9.7,3.1,33.1,4.9,61.6-6.1c31.8-12.3,56.7-46.6,49.4-75.2c-7.3-29.1-55.6-38.7-101.3-22.5c-27.2,9.7-56.6,24.9-77.8,44.7
	c-25.2,23.5-29.2,44-27.5,52.6c5.9,30.4,47.8,50.2,64.6,64.9c-0.8,0.5-1.6,0.9-2.3,1.3c-8.4,4.2-40.4,20.9-48.4,38.6
	c-9.1,20,1.4,34.4,8.4,36.3c21.6,6,43.7-4.8,55.6-22.5s10.4-40.8,5-51.4c-0.1-0.1-0.1-0.2-0.2-0.4c2.2-1.3,4.4-2.6,6.6-3.9
	c4.3-2.5,8.5-4.9,12.1-6.8c-2.1,5.6-3.6,12.3-4.3,22c-0.9,11.4,3.7,26.1,9.8,31.9c2.7,2.5,5.9,2.6,8,2.6c7.1,0,10.3-5.9,13.9-12.9
	c4.3-8.6,8.3-18.5,8.3-18.5s-4.9,26.9,8.4,26.9c4.8,0,9.7-6.3,11.9-9.5c0,0.1,0,0.1,0,0.1s0.1-0.2,0.4-0.6c0.5-0.8,0.8-1.3,0.8-1.3
	s0-0.1,0-0.1c1.9-3.4,6.3-11,12.7-23.8c8.3-16.4,16.4-37,16.4-37s0.7,5,3.2,13.3c1.4,4.9,4.5,10.3,6.9,15.5
	c-1.9,2.7-3.1,4.2-3.1,4.2s0,0,0.1,0.1c-1.6,2.1-3.3,4.3-5.1,6.5c-6.6,7.8-14.4,16.8-15.5,19.4c-1.3,3.1-1,5.3,1.4,7.1
	c1.8,1.3,4.9,1.5,8.1,1.3c5.9-0.4,10.1-1.9,12.1-2.8c3.2-1.1,6.9-2.9,10.4-5.5c6.5-4.8,10.4-11.6,10-20.6c-0.2-5-1.8-9.9-3.8-14.6
	c0.6-0.8,1.1-1.7,1.8-2.5c10.2-14.9,18.1-31.3,18.1-31.3s0.7,5,3.2,13.3c1.2,4.2,3.7,8.8,5.9,13.3c-9.6,7.8-15.5,16.8-17.6,22.8
	c-3.8,11-0.8,15.9,4.8,17.1c2.5,0.5,6.2-0.7,8.8-1.8c3.4-1.1,7.4-3,11.2-5.7c6.5-4.8,12.7-11.4,12.3-20.4c-0.2-4.1-1.3-8.2-2.8-12.1
	c8.2-3.4,18.7-5.3,32.1-3.7c28.7,3.4,34.4,21.3,33.3,28.9c-1.1,7.5-7.1,11.7-9.1,12.9s-2.7,1.7-2.5,2.6c0.2,1.3,1.2,1.3,2.9,1
	c2.4-0.4,15.1-6.1,15.6-20C365.9,238,349,218.6,319.1,218.8z M97.4,293.6c-9.5,10.4-22.8,14.3-28.6,11c-6.2-3.6-3.7-18.9,8-29.9
	c7.1-6.7,16.3-12.9,22.4-16.7c1.4-0.8,3.4-2.1,5.9-3.6c0.4-0.2,0.7-0.4,0.7-0.4l0,0c0.5-0.3,1-0.6,1.4-0.9
	C111.5,268.8,107.4,282.6,97.4,293.6z M166.8,246.4c-3.3,8.1-10.3,28.8-14.5,27.7c-3.6-1-5.9-16.7-0.7-32.2
	c2.6-7.8,8.1-17.1,11.3-20.7c5.2-5.8,10.9-7.7,12.3-5.4C176.9,218.8,168.9,241.3,166.8,246.4z M224.1,273.8
	c-1.4,0.7-2.7,1.2-3.3,0.8c-0.4-0.2,0.6-1.2,0.6-1.2s7.2-7.7,10-11.2c1.6-2.1,3.6-4.5,5.6-7.2c0,0.2,0,0.5,0,0.8
	C237,265,228.1,271.2,224.1,273.8z M268.3,263.7c-1-0.7-0.8-3.1,2.6-10.7c1.3-3,4.5-7.9,9.8-12.7c0.6,1.9,1,3.8,1,5.6
	C281.6,257.5,273.3,261.9,268.3,263.7z"/>
</svg>
